<svg xmlns="http://www.w3.org/2000/svg" viewBox="20.26 18.13 269.61 73.16">
  <path class="st0" d="M 132.136 78.72 L 132.001 78.72 C 132.069 78.72 132.069 78.788 132.136 78.788 L 132.204 78.788 L 132.136 78.72 Z M 132.136 78.788 C 131.593 78.788 130.167 79.06 128.672 79.06 C 123.985 79.06 122.355 76.886 122.355 74.033 L 122.355 55.149 L 131.933 55.149 C 132.476 55.149 132.884 54.673 132.884 53.994 L 132.884 43.737 C 132.884 43.194 132.408 42.718 131.933 42.718 L 122.355 42.718 L 122.355 29.947 C 122.355 29.472 122.015 29.2 121.472 29.2 L 108.429 29.2 C 107.886 29.2 107.614 29.54 107.614 29.947 L 107.614 43.058 C 107.614 43.058 101.025 44.688 100.618 44.756 C 100.142 44.892 99.87 45.299 99.87 45.775 L 99.87 53.994 C 99.87 54.673 100.346 55.149 100.889 55.149 L 107.546 55.149 L 107.546 74.984 C 107.546 89.725 117.804 91.219 124.8 91.219 C 127.993 91.219 131.865 90.2 132.476 89.861 C 132.816 89.725 133.02 89.317 133.02 88.909 L 133.02 79.875 C 133.02 79.332 132.68 78.924 132.136 78.788 Z M 275.194 65.542 C 275.194 54.606 270.779 53.179 266.16 53.655 C 262.559 53.858 259.639 55.692 259.639 55.692 L 259.639 76.954 C 259.639 76.954 262.559 78.992 266.975 79.128 C 273.156 79.264 275.194 77.022 275.194 65.542 Z M 289.867 64.591 C 289.867 85.309 283.142 91.219 271.458 91.219 C 261.541 91.219 256.242 86.192 256.242 86.192 C 256.242 86.192 256.038 88.977 255.699 89.317 C 255.495 89.657 255.223 89.793 254.816 89.793 L 245.917 89.793 C 245.306 89.793 244.762 89.317 244.762 88.774 L 244.898 21.728 C 244.898 21.185 245.373 20.709 245.917 20.709 L 258.755 20.709 C 259.299 20.709 259.774 21.185 259.774 21.728 L 259.774 44.484 C 259.774 44.484 264.733 41.292 272.002 41.292 L 271.934 41.156 C 279.134 41.156 289.867 43.873 289.867 64.591 Z M 237.222 42.786 L 224.519 42.786 C 223.84 42.786 223.5 43.261 223.5 43.941 L 223.5 76.75 C 223.5 76.75 220.172 79.06 215.621 79.06 C 211.137 79.06 209.779 77.022 209.779 72.471 L 209.779 43.805 C 209.779 43.261 209.303 42.786 208.76 42.786 L 195.854 42.786 C 195.31 42.786 194.835 43.261 194.835 43.805 L 194.835 74.712 C 194.835 87.958 202.239 91.287 212.428 91.287 C 220.851 91.287 227.644 86.668 227.644 86.668 C 227.644 86.668 227.984 89.045 228.12 89.385 C 228.255 89.657 228.663 89.928 229.071 89.928 L 237.154 89.928 C 237.833 89.928 238.173 89.453 238.173 88.909 L 238.309 43.805 C 238.377 43.261 237.833 42.786 237.222 42.786 Z M 94.164 42.718 L 81.326 42.718 C 80.782 42.718 80.307 43.261 80.307 43.941 L 80.307 88.23 C 80.307 89.453 81.122 89.861 82.141 89.861 L 93.757 89.861 C 94.979 89.861 95.251 89.317 95.251 88.23 L 95.251 43.737 C 95.183 43.194 94.708 42.718 94.164 42.718 Z M 87.779 22.272 C 83.16 22.272 79.424 25.94 79.424 30.627 C 79.424 35.246 83.092 38.982 87.779 38.982 C 92.33 38.982 95.998 35.314 95.998 30.627 C 95.998 26.008 92.33 22.272 87.779 22.272 Z M 187.362 20.777 L 174.592 20.777 C 174.048 20.777 173.573 21.253 173.573 21.796 L 173.573 46.454 L 153.602 46.454 L 153.602 21.796 C 153.602 21.253 153.126 20.777 152.583 20.777 L 139.744 20.777 C 139.201 20.777 138.726 21.253 138.726 21.796 L 138.726 88.842 C 138.726 89.385 139.269 89.861 139.744 89.861 L 152.583 89.861 C 153.126 89.861 153.602 89.385 153.602 88.842 L 153.602 60.176 L 173.573 60.176 L 173.437 88.842 C 173.437 89.385 173.913 89.861 174.456 89.861 L 187.295 89.861 C 187.838 89.861 188.313 89.385 188.313 88.842 L 188.313 21.796 C 188.381 21.253 187.906 20.777 187.362 20.777 Z M 73.446 50.462 L 73.446 85.105 C 73.446 85.309 73.378 85.785 73.106 85.853 C 73.106 85.853 65.566 91.219 53.135 91.219 C 38.123 91.219 20.258 86.532 20.258 55.489 C 20.258 24.445 35.814 18.06 51.03 18.128 C 64.208 18.128 69.506 21.117 70.321 21.66 C 70.525 22 70.661 22.204 70.661 22.475 L 68.216 33.276 C 68.216 33.819 67.672 34.499 66.993 34.295 C 64.819 33.616 61.559 32.325 53.883 32.325 C 44.984 32.325 35.474 34.838 35.474 54.877 C 35.474 74.848 44.509 77.226 51.03 77.226 C 56.6 77.226 58.57 76.546 58.57 76.546 L 58.57 62.689 L 49.671 62.689 C 48.992 62.689 48.516 62.214 48.516 61.67 L 48.516 50.53 C 48.516 49.986 48.992 49.511 49.671 49.511 L 72.291 49.511 C 72.971 49.443 73.446 49.918 73.446 50.462 Z M 73.446 50.462" style="fill: rgb(36, 41, 46);"/>
</svg>